<svg xmlns="http://www.w3.org/2000/svg" id="Layer_2" data-name="Layer 2" viewBox="0 0 52.75 52.77"><defs><linearGradient id="linear-gradient" x1="33.49" x2="27.27" y1="8.78" y2="5.76" gradientUnits="userSpaceOnUse"><stop offset="0" stop-color="#02365c"/><stop offset="1" stop-color="#3f6ba7"/></linearGradient><linearGradient id="linear-gradient-2" x1="8.56" x2="4.66" y1="21.54" y2="42.39" gradientUnits="userSpaceOnUse"><stop offset="0" stop-color="#fdd058"/><stop offset="1" stop-color="#f09b54"/><stop offset="1" stop-color="#f8b145"/></linearGradient><linearGradient id="linear-gradient-3" x1="15.21" x2="14.31" y1="20.2" y2="23.96" gradientUnits="userSpaceOnUse"><stop offset="0" stop-color="#fcc94b"/><stop offset="1" stop-color="#f8b145"/></linearGradient><linearGradient id="linear-gradient-4" x1="9.28" x2="8.06" y1="36.15" y2="49.22" gradientUnits="userSpaceOnUse"><stop offset="0" stop-color="#f39c12"/><stop offset=".56" stop-color="#e67e22"/><stop offset="1" stop-color="#d35400"/></linearGradient><linearGradient id="linear-gradient-5" x1="23.21" x2="23.53" y1="29.01" y2="46.06" gradientUnits="userSpaceOnUse"><stop offset="0" stop-color="#f39c12"/><stop offset="1" stop-color="#d35400"/></linearGradient><linearGradient id="linear-gradient-6" x1="20.88" x2="26.19" y1="44.76" y2="44.76" gradientUnits="userSpaceOnUse"><stop offset="0" stop-color="#1f705b"/><stop offset="1" stop-color="#228760"/></linearGradient><linearGradient id="linear-gradient-7" x1="19.48" x2="22.14" y1="36.83" y2="39.72" gradientUnits="userSpaceOnUse"><stop offset="0" stop-color="#0f6455"/><stop offset="1" stop-color="#046e65"/></linearGradient><linearGradient id="linear-gradient-8" x1="31.65" x2="41.71" y1="42.9" y2="30.36" gradientUnits="userSpaceOnUse"><stop offset="0" stop-color="#42985e"/><stop offset=".97" stop-color="#a0d552"/></linearGradient><linearGradient id="linear-gradient-9" x1="28.6" x2="4.2" y1="6.52" y2="7.09" gradientUnits="userSpaceOnUse"><stop offset="0" stop-color="#4675b3"/><stop offset="1" stop-color="#2db6bd"/></linearGradient><linearGradient id="linear-gradient-10" x1="31.04" x2="33.8" y1="37.03" y2="20.82" gradientUnits="userSpaceOnUse"><stop offset="0" stop-color="#318d58"/><stop offset="1" stop-color="#85cd3f"/></linearGradient><linearGradient id="linear-gradient-11" x1="41.67" x2="38.04" y1="35.39" y2="17.55" gradientUnits="userSpaceOnUse"><stop offset=".02" stop-color="#93cd61"/><stop offset=".17" stop-color="#a2d55c"/><stop offset=".63" stop-color="#cfee4e"/><stop offset=".87" stop-color="#e1f849"/></linearGradient><linearGradient id="linear-gradient-12" x1="31.21" x2="6.7" y1="4.71" y2="5.12" gradientUnits="userSpaceOnUse"><stop offset="0" stop-color="#2183b1"/><stop offset="1" stop-color="#51e3e0"/></linearGradient><linearGradient id="linear-gradient-13" x1="32.57" x2="27.61" y1="18.31" y2="14.24" gradientUnits="userSpaceOnUse"><stop offset="0" stop-color="#204376"/><stop offset="1" stop-color="#0b4b86"/></linearGradient><linearGradient id="linear-gradient-14" x1="40.2" x2="29.12" y1="21.22" y2=".4" gradientUnits="userSpaceOnUse"><stop offset=".05" stop-color="#91cc47"/><stop offset=".93" stop-color="#cdf443"/></linearGradient><style>.cls-2,.cls-3{fill:none;stroke:#000;stroke-miterlimit:10}.cls-3{fill:#fff;stroke:#b3b3b3;stroke-width:.25px}</style></defs><g id="Piste5"><path d="M43.88 48.27h4.38v4.38h-4.38zM4.5 48.27h4.38v4.38H4.5zM8.88 48.27h4.38v4.38H8.88zM.12 48.27H4.5v4.38H.12z" class="cls-3"/><path d="M.12 43.9H4.5v4.38H.12z" class="cls-3"/><path d="M.12 39.52H4.5v4.38H.12zM48.25 48.27h4.37v4.38h-4.37z" class="cls-3"/><path d="M48.25 43.9h4.38v4.38h-4.38z" class="cls-3"/><path d="M33.43 13.64c-1.29-1.38-2.78-2.69-4.52-3.95.66-4.71-2.32-9.07-2.4-9.19 3.02 2.47 5.81 6.4 6.92 13.14Z" style="fill:url(#linear-gradient)"/><path d="M12.19 19.46c-1.02 3.18-1.72 7.71-1.87 12.69-4.16 6.43-5.41 13.08-5.72 15.32-.07.51-.1.79-.1.79V23.61c0-.21.01-.42.05-.62.3-1.97 2-3.54 4.05-3.54h3.59Z" style="fill:url(#linear-gradient-2)"/><path d="M17.5 19.46v4.86c-3.04 2.32-5.39 5.06-7.18 7.83.15-4.99.85-9.51 1.87-12.69h5.31Z" style="fill:url(#linear-gradient-3)"/><path d="m11.8 48.25-7.3.02s.02-.28.1-.79c.32-2.24 1.56-8.89 5.72-15.32-.13 4.37.16 9.14 1.02 13.81.14.77.3 1.53.47 2.29Z" style="fill:url(#linear-gradient-4)"/><path d="M36.53 44.4c-3.41 2.21-7.57 3.55-12.28 3.81l-12.45.04c-.17-.76-.33-1.52-.47-2.29-.86-4.67-1.15-9.44-1.02-13.81 1.79-2.77 4.14-5.51 7.18-7.83v10.89s-.25 5.16 2.43 8.67c2.41 3.15 7.17 4.97 16.6.51Z" style="fill:url(#linear-gradient-5)"/><path d="M19.93 43.88c.07-.02.13-.03.2-.05 1.6-.4 3.09-.86 4.47-1.37" style="fill:#16765b"/><path d="M36.53 44.4c-9.43 4.45-14.2 2.63-16.6-.51.07-.01.13-.03.2-.05 1.6-.4 3.09-.86 4.47-1.37 1.43 2.33 4.72 3.87 11.93 1.93Z" style="fill:url(#linear-gradient-6)"/><path d="M24.6 42.47c-1.39.51-2.87.97-4.47 1.37-.07.02-.13.03-.2.05-2.68-3.51-2.43-8.67-2.43-8.67h6.53c-.27 1.17-.95 4.79.57 7.26Z" style="fill:url(#linear-gradient-7)"/><path d="M40.6 40.97c-1.2 1.3-2.55 2.44-4.06 3.42-7.21 1.93-10.51.4-11.93-1.93 9.35-3.44 13.99-9.26 15.5-15.49.88 4.54.82 9.28.5 14Z" style="fill:url(#linear-gradient-8)"/><path d="M36.55 44.39h-.01v.01M26.51.5" class="cls-2"/><path d="M28.91 9.69c-.17 1.24-.6 2.5-1.39 3.72-.81-.33-1.46-.45-1.77-.45H8.6a4.096 4.096 0 0 1-4.1-4.1V.21C15.64 2.5 23.46 5.77 28.91 9.69Z" style="fill:url(#linear-gradient-9)"/><path d="M33.43 13.64c3.78 4.04 5.74 8.58 6.67 13.34-1.51 6.24-6.15 12.05-15.5 15.49-1.51-2.46-.84-6.09-.57-7.26.61-.02 9.48-.59 9.72-10.25.35-4.47.19-8.2-.32-11.32Z" style="fill:url(#linear-gradient-10)"/><path d="M46.5 25.21c-.11 6.36-2.24 11.78-5.9 15.76.32-4.72.38-9.46-.5-14C42.84 15.61 35.17 2.85 26.51.5c2.67.38 5.29 1.15 7.74 2.32 5.71 2.72 12.25 8.2 12.25 19.14v3.25Z" style="fill:url(#linear-gradient-11)"/><path d="M28.91 9.69C23.46 5.77 15.64 2.5 4.5.21h17.92c1.37 0 2.74.1 4.09.29.08.12 3.07 4.48 2.4 9.19Z" style="fill:url(#linear-gradient-12)"/><path d="M33.74 24.96c.19-7.54-3.75-10.54-6.23-11.55a9.042 9.042 0 0 0 1.39-3.72c1.74 1.25 3.23 2.57 4.52 3.94.52 3.13.67 6.85.32 11.32Z" style="fill:url(#linear-gradient-13)"/><path d="M40.1 26.98c-.93-4.76-2.89-9.29-6.67-13.34 0-.05-.02-.1-.02-.15C32.31 7 29.65 3.15 26.73.68c-.07-.06-.14-.12-.22-.18.04 0 .07 0 .11.02h.04c.11.02.23.03.35.05-.11-.02-.23-.04-.35-.05.01.01.02.02.04.03l.31.09c.02 0 .05.01.07.02.1.03.2.07.3.1.11.04.23.08.34.13.12.04.23.09.34.14.11.05.23.1.34.15.11.05.23.1.34.16l.3.15c.02 0 .05.02.07.04.08.04.17.09.25.13.13.07.25.14.38.21.11.06.22.13.33.2.33.2.65.42.97.65.11.07.21.15.32.23.08.06.16.12.23.18.09.07.18.14.26.21.11.08.21.17.31.26.42.35.82.72 1.22 1.11.1.1.2.2.29.3.09.09.18.18.27.28.11.12.22.24.33.35l.23.26c.11.13.23.26.34.4.08.1.17.2.25.3.18.23.36.45.53.69.09.11.17.23.26.35.08.12.17.24.25.36.08.12.16.24.25.37.16.24.32.49.48.74.08.12.16.25.23.38.07.12.14.23.2.35.08.14.16.28.24.43.07.13.14.26.21.4.07.13.14.27.21.4.47.94.89 1.92 1.26 2.93.04.11.08.23.12.34.41 1.19.73 2.41.96 3.65.03.15.06.3.08.46.1.61.18 1.22.23 1.84 0 .11.02.21.02.32.15 2.12 0 4.27-.51 6.37Z" style="fill:url(#linear-gradient-14)"/><path d="M.12.15H4.5v4.38H.12z" class="cls-3"/></g></svg>