<?xml version="1.0" encoding="UTF-8"?>
<svg id="Layer_2" data-name="Layer 2" xmlns="http://www.w3.org/2000/svg" viewBox="0 0 164.3 136.14">
  <defs>
    <style>
      .cls-1 {
        fill: #3c57a5;
      }

      .cls-2 {
        fill: #fac62e;
      }

      .cls-3 {
        fill: #2b7daa;
      }
    </style>
  </defs>
  <g id="Typographies">
    <g>
      <g>
        <path class="cls-2" d="m91.56,134.15c-3.43,0-6.63-1.97-8.13-5.16-.3-.63-.52-1.28-.66-1.94-2.45-1-4.35-3.03-5.17-5.55-10.42-32.02-2.88-58.46,22.4-78.58,2.68-2.13,5.42-4.15,8.06-6.1,4.59-3.38,8.93-6.58,12.74-10.16,5.55-5.21,10.8-10.99,15.89-16.59,2.17-2.39,4.42-4.87,6.63-7.23,2.16-2.3,5.37-3.31,8.46-2.65,3.09.66,5.6,2.9,6.63,5.89,11.06,32.36,7.73,80.94-20.24,107.21-11.83,11.11-25.75,17.5-45.13,20.73-.5.08-.99.12-1.48.12Zm53.58-106.63c-3.81,4.14-7.77,8.29-12.01,12.27-4.6,4.32-9.58,7.99-14.39,11.53-2.63,1.94-5.12,3.77-7.53,5.69-16,12.73-22.33,27.18-19.65,45.75,11.84-11.73,25.05-31.33,37.58-56.03,1.97-3.89,6.46-5.8,10.63-4.54,3.6,1.09,6.08,4.27,6.37,7.91.47-7.64.11-15.3-1-22.57Zm.68,26.5c-2.24,16.01-8.11,29.75-15.69,41.6,9.13-11,14.15-26.08,15.69-41.6Z"/>
        <path class="cls-2" d="m58.56,136.14c-8.99,0-17.23-3.78-23.78-11.18-3.61-4.08-6.43-8.49-9.16-12.76-.93-1.45-1.85-2.9-2.81-4.33-1.26-1.89-2.45-3.79-3.6-5.63-1.86-2.98-3.63-5.8-5.56-8.35-1.93-2.55-4.26-5.08-6.96-8-1.39-1.5-2.86-3.09-4.42-4.84-2.28-2.55-2.91-6.17-1.64-9.34,1.27-3.17,4.23-5.35,7.64-5.62l.68-.05c19.38-1.55,39.41-3.16,57.72,9.55,16.23,11.27,18.29,27.95,18.16,42.79-.03,3.47-2.05,6.56-5.09,8.03-.66,2.5-2.38,4.69-4.89,5.86-5.56,2.6-11.06,3.88-16.29,3.88Zm-22.26-40.56c.49.77.99,1.53,1.49,2.28,1.02,1.53,2.02,3.09,3.02,4.65,2.46,3.86,4.79,7.5,7.46,10.52,2.26,2.55,5.31,5.08,10.05,5.16-5.15-8.96-12.42-16.42-22.01-22.61Zm-8.32-12.6s.03.04.04.05c.66.87,1.29,1.74,1.89,2.62.08-.79.27-1.58.57-2.36.04-.1.08-.2.12-.29-.87-.02-1.74-.03-2.63-.02Z"/>
      </g>
      <g>
        <path class="cls-1" d="m91.56,125.15c24.33-21.24,41.98-43.68,45.6-74.35-16.94,33.4-35.1,57.95-51.01,67.91-9.55-29.35-2.38-51.38,19.45-68.75,7.08-5.64,14.8-10.57,21.36-16.74,8.26-7.76,15.65-16.45,22.93-24.23,10.01,29.29,7.04,74.33-17.88,97.74-10.79,10.14-23.57,15.6-40.45,18.41Z"/>
        <path class="cls-3" d="m38.87,86.57c14.92,9.04,25.92,21.19,32.17,37.53-11.45,5.36-21.67,3.76-29.52-5.1-4.31-4.87-7.58-10.68-11.22-16.13-3.2-4.78-6.01-9.83-9.46-14.4-3.25-4.29-7.11-8.11-11.84-13.41,19.12-1.53,36.69-3.09,52.55,7.92,11.6,8.05,14.43,19.83,14.29,35.31-9.18-16.27-19.61-28.18-36.97-31.71Z"/>
      </g>
    </g>
  </g>
</svg>